HIERARCHY
ROOT Hips
{
 OFFSET 0.000000 0.000000 0.000000
 CHANNELS 6 Xposition Yposition Zposition Yrotation Xrotation Zrotation
 JOINT Chest
 {
  OFFSET 0.000000 9.585900 0.002600
  CHANNELS 3 Yrotation Xrotation Zrotation
  JOINT Chest2
  {
   OFFSET 0.000000 9.601200 -0.005300
   CHANNELS 3 Yrotation Xrotation Zrotation
   JOINT Chest3
   {
    OFFSET 0.000000 9.561800 0.000000
    CHANNELS 3 Yrotation Xrotation Zrotation
    JOINT Chest4
    {
     OFFSET 0.000000 9.552100 0.000000
     CHANNELS 3 Yrotation Xrotation Zrotation
     JOINT Neck
     {
      OFFSET 0.000000 14.453000 0.000000
      CHANNELS 3 Yrotation Xrotation Zrotation
      JOINT Head
      {
       OFFSET 0.000000 8.936500 -0.011300
       CHANNELS 3 Yrotation Xrotation Zrotation
       End Site
       {
        OFFSET 0.000000 17.073600 -0.006000
       }
      }
     }
     JOINT RightCollar
     {
      OFFSET -2.921100 9.558500 0.000000
      CHANNELS 3 Yrotation Xrotation Zrotation
      JOINT RightShoulder
      {
       OFFSET -13.519700 0.000000 0.000000
       CHANNELS 3 Yrotation Xrotation Zrotation
       JOINT RightElbow
       {
        OFFSET 0.000000 -29.696600 0.000000
        CHANNELS 3 Yrotation Xrotation Zrotation
        JOINT RightWrist
        {
         OFFSET 0.000000 -24.004700 0.000000
         CHANNELS 3 Yrotation Xrotation Zrotation
         End Site
         {
          OFFSET 0.000000 -17.728500 0.000000
         }
        }
       }
      }
     }
     JOINT LeftCollar
     {
      OFFSET 2.921100 9.558500 0.000000
      CHANNELS 3 Yrotation Xrotation Zrotation
      JOINT LeftShoulder
      {
       OFFSET 13.519700 0.000000 0.000000
       CHANNELS 3 Yrotation Xrotation Zrotation
       JOINT LeftElbow
       {
        OFFSET 0.000000 -29.696600 0.000000
        CHANNELS 3 Yrotation Xrotation Zrotation
        JOINT LeftWrist
        {
         OFFSET 0.000000 -24.004700 0.000000
         CHANNELS 3 Yrotation Xrotation Zrotation
         End Site
         {
          OFFSET 0.000000 -17.728500 0.000000
         }
        }
       }
      }
     }
    }
   }
  }
 }
 JOINT RightHip
 {
  OFFSET -7.771700 -0.012900 -0.001300
  CHANNELS 3 Yrotation Xrotation Zrotation
  JOINT RightKnee
  {
   OFFSET 0.000000 -40.869800 0.001200
   CHANNELS 3 Yrotation Xrotation Zrotation
   JOINT RightAnkle
   {
    OFFSET 0.000000 -39.717900 0.002100
    CHANNELS 3 Yrotation Xrotation Zrotation
    JOINT RightToe
    {
     OFFSET 0.000000 -4.965400 11.033500
     CHANNELS 3 Yrotation Xrotation Zrotation
     End Site
     {
      OFFSET 0.000000 -1.423100 5.872300
     }
    }
   }
  }
 }
 JOINT LeftHip
 {
  OFFSET 7.771700 -0.012900 -0.001300
  CHANNELS 3 Yrotation Xrotation Zrotation
  JOINT LeftKnee
  {
   OFFSET 0.000000 -40.869800 0.001200
   CHANNELS 3 Yrotation Xrotation Zrotation
   JOINT LeftAnkle
   {
    OFFSET 0.000000 -39.717900 0.002100
    CHANNELS 3 Yrotation Xrotation Zrotation
    JOINT LeftToe
    {
     OFFSET 0.000000 -4.965400 11.033500
     CHANNELS 3 Yrotation Xrotation Zrotation
     End Site
     {
      OFFSET 0.000000 -1.423100 5.872300
     }
    }
   }
  }
 }
}
MOTION
Frames: 9
Frame Time: 0.008333
0.000000 85.388000 0.000000 0.000000 -5.767877 0.000000 0.000000 11.653817 0.000000 0.000000 -5.885947 0.000000 0.000000 -0.000000 0.000000 0.000000 -0.000000 0.000000 0.000000 12.528835 0.000000 0.000000 0.711642 0.000000 0.000000 -0.000000 0.000000 0.000000 0.000000 -90.000000 0.000000 -2.309062 0.000000 0.000000 2.309062 0.000000 0.000000 -0.000000 0.000000 0.000000 -0.000000 90.000000 0.000000 -2.309062 0.000000 0.000000 2.309062 0.000000 0.000000 8.520406 0.000000 0.000000 1.905762 0.000000 -0.000000 -4.658285 0.000000 0.000000 -0.000000 0.000000 0.000000 8.520406 0.000000 0.000000 1.905762 0.000000 -0.000000 -4.658285 0.000000 0.000000 -0.000000 0.000000
-75.186741 46.502043 -7.413445 174.587165 -31.050949 -2.940689 0.275263 19.351167 1.437899 0.015742 2.336432 0.195384 0.028723 3.840977 0.324247 0.260201 16.719287 1.480218 -0.817711 20.131945 0.312367 -1.582702 1.599508 0.813063 0.578799 -2.238336 -4.096863 3.888652 -7.201181 -13.291345 -49.896754 -65.661994 94.988672 0.274184 6.097922 -20.133578 -1.102041 -2.641188 4.751987 -2.108452 -1.818005 10.483576 113.750562 -79.615572 -147.313039 -5.854694 14.363622 6.729935 -2.614950 -56.350483 -5.864829 -151.427987 80.432731 -141.942803 -8.994616 -11.686778 -5.994528 -0.070463 -0.199991 0.008710 -0.875450 -58.109356 11.712490 -119.133125 82.800987 -122.713792 7.426190 -7.071122 6.243141 0.134204 0.190342 0.070473
-75.186073 46.501985 -7.413554 174.583444 -31.070559 -2.931288 0.271943 19.359714 1.430879 0.014819 2.336350 0.194538 0.022685 3.828720 0.326371 0.263637 16.728588 1.480413 -0.871075 20.142480 0.339232 -1.680621 1.647031 0.860126 0.577013 -2.223533 -4.056776 3.819674 -7.292256 -13.267779 -50.161980 -66.103204 95.133794 0.356468 6.117106 -20.153018 -1.106920 -2.658754 4.746216 -2.095285 -1.846629 10.467077 114.464833 -79.661778 -147.935126 -5.908270 14.369667 6.613523 -2.590809 -56.332611 -5.873339 -151.518887 80.444776 -142.047204 -8.998942 -11.690054 -5.982180 -0.088272 -0.191312 0.005580 -0.853893 -58.089696 11.700090 -119.116549 82.803563 -122.696842 7.416716 -7.065021 6.244090 0.135078 0.187582 0.070182
-75.184520 46.501293 -7.411995 174.592579 -31.083493 -2.931482 0.258938 19.361820 1.428141 0.010485 2.323607 0.198506 0.021491 3.826468 0.327290 0.263952 16.739630 1.477795 -0.930697 20.154596 0.362278 -1.786706 1.695442 0.901903 0.575429 -2.210697 -4.017725 3.766341 -7.348704 -13.254192 -50.540530 -66.543592 95.363939 0.435720 6.143823 -20.162556 -1.107954 -2.667643 4.740646 -2.048305 -1.952186 10.451182 114.867405 -79.721112 -148.283645 -5.956400 14.367629 6.496067 -2.558191 -56.320548 -5.878423 -151.522416 80.448728 -142.051491 -9.037678 -11.693732 -5.974058 -0.076594 -0.183970 0.015635 -0.858665 -58.075422 11.702892 -119.038927 82.812443 -122.627781 7.413382 -7.048991 6.253182 0.120495 0.183692 0.064985
-75.180114 46.500419 -7.409053 174.594358 -31.093945 -2.942777 0.246534 19.325093 1.447065 0.012961 2.348578 0.190488 0.020123 3.825052 0.328754 0.249836 16.714041 1.492742 -0.953016 20.202789 0.345686 -1.927850 1.744325 0.965194 0.587172 -2.163529 -4.000325 3.725593 -7.390812 -13.239849 -50.985673 -66.991468 95.637580 0.514214 6.179379 -20.160766 -1.087744 -2.626046 4.711833 -2.010105 -2.015355 10.453815 115.587468 -79.736166 -148.928801 -6.003614 14.355389 6.384449 -2.538249 -56.309187 -5.859251 -151.472065 80.447518 -141.995206 -9.063693 -11.697730 -5.976438 -0.077977 -0.180226 0.019489 -0.891601 -58.062613 11.750270 -118.928712 82.805289 -122.530535 7.407414 -7.046449 6.255585 0.115035 0.189794 0.066381
-75.176485 46.500583 -7.407495 174.596189 -31.117027 -2.946582 0.245247 19.334978 1.454402 0.009072 2.335802 0.194044 0.016371 3.801707 0.339487 0.248928 16.756052 1.475373 -1.027781 20.206074 0.377466 -2.032629 1.798953 0.987452 0.581686 -2.164577 -3.965141 3.681295 -7.428938 -13.212226 -51.452783 -67.458370 95.914777 0.597182 6.228597 -20.145524 -1.091679 -2.649912 4.714427 -1.956730 -2.062870 10.457492 116.337511 -79.744959 -149.606385 -6.052202 14.335142 6.284601 -2.515126 -56.286143 -5.851755 -151.380881 80.438709 -141.897311 -9.079987 -11.700292 -5.987257 -0.068876 -0.177814 0.036078 -0.899226 -58.039434 11.763327 -118.886410 82.802327 -122.488012 7.392605 -7.040550 6.260210 0.127102 0.189978 0.061065
-75.172788 46.500537 -7.405135 174.599443 -31.137173 -2.950896 0.243161 19.341363 1.462549 0.012852 2.299656 0.209491 0.011033 3.844427 0.321757 0.245311 16.731885 1.490455 -1.102464 20.235413 0.391838 -2.143354 1.856231 1.008864 0.580484 -2.145152 -3.949345 3.647587 -7.452458 -13.194844 -52.008891 -67.946361 96.244673 0.688177 6.293882 -20.121974 -1.096295 -2.675537 4.705159 -1.898451 -2.093183 10.460613 117.190081 -79.755465 -150.382051 -6.101559 14.310034 6.199287 -2.496863 -56.267221 -5.836039 -151.308094 80.436838 -141.831124 -9.104180 -11.694942 -5.973156 -0.034856 -0.181244 0.021996 -0.918863 -58.018320 11.784912 -118.796668 82.802412 -122.413103 7.423460 -7.030279 6.264572 0.106814 0.185249 0.060254
-75.168858 46.500141 -7.401921 174.606719 -31.152832 -2.959111 0.246296 19.329446 1.480798 0.009566 2.302239 0.210312 0.012256 3.838963 0.322953 0.240067 16.728401 1.496163 -1.165724 20.271099 0.400468 -2.268265 1.913020 1.042459 0.573961 -2.133129 -3.937061 3.593102 -7.480712 -13.144509 -52.547466 -68.487444 96.548633 0.782034 6.373585 -20.097162 -1.110842 -2.683783 4.694604 -1.835787 -2.145440 10.470569 118.208121 -79.770847 -151.315657 -6.150370 14.283591 6.130924 -2.459972 -56.257946 -5.819345 -151.112120 80.413241 -141.636278 -9.137387 -11.678111 -5.964604 -0.013601 -0.189806 0.043903 -0.948055 -57.998941 11.812560 -118.700586 82.804439 -122.327806 7.427787 -7.025323 6.267451 0.113380 0.190888 0.057536
-75.168887 46.500445 -7.400664 174.606764 -31.179322 -2.939683 0.245395 19.308146 1.483088 0.006531 2.325758 0.200678 0.016762 3.813270 0.337499 0.235793 16.751679 1.493147 -1.236293 20.300879 0.405462 -2.390126 1.970213 1.077659 0.561649 -2.129920 -3.927624 3.521070 -7.523978 -13.066813 -53.090692 -69.103339 96.841482 0.871623 6.464823 -20.074337 -1.139515 -2.715264 4.685235 -1.767809 -2.190903 10.478509 119.378416 -79.791713 -152.391871 -6.203259 14.259325 6.077245 -2.398102 -56.240539 -5.846337 -150.954379 80.389168 -141.509215 -9.107879 -11.658964 -5.923638 -0.033666 -0.195600 0.031617 -0.929324 -57.968646 11.792131 -118.614376 82.802686 -122.252990 7.422418 -7.017279 6.272796 0.110010 0.190075 0.055101
